<svg width="59" height="73" viewBox="0 0 59 73" fill="none" xmlns="http://www.w3.org/2000/svg">
<g filter="url(#filter0_d_24_4163)">
<path d="M50 20.6785C50 30.0915 37.5078 46.8498 32.0305 53.7641C30.7172 55.412 28.2828 55.412 26.9695 53.7641C21.3961 46.8498 9 30.0915 9 20.6785C9 9.25794 18.178 0 29.5 0C40.8177 0 50 9.25794 50 20.6785Z" fill="white"/>
</g>
<path fill-rule="evenodd" clip-rule="evenodd" d="M14.5718 19.5086L19.466 11.2976H23.1715L21.144 14.8268H24.7797L26.9471 11.2173H30.9555L25.8284 19.5086H22.1228L24.1194 15.9074H20.5147L18.2774 19.5086H14.5718ZM27.5763 19.5086L32.4007 11.2976L40.8596 11.352C43.1193 11.7025 42.0219 13.3263 42.0219 13.3263C41.5908 14.6587 38.693 15.6193 38.693 15.6193L39.8117 21.0212L43.4476 18.7883H45.4751L40.0604 22.1755L41.1402 26.9996L36.9605 26.9992L36.3159 24.2624L31.6314 26.9996H29.6739L36.0363 23.0379L34.7277 16.0828C34.6197 15.1225 37.0152 14.5387 37.0152 14.5387C38.693 13.5944 37.9784 12.634 37.9784 12.634C37.7611 12.1218 35.6166 12.4499 35.6166 12.4499L31.2819 19.5086H27.5763Z" fill="#242121"/>
<path fill-rule="evenodd" clip-rule="evenodd" d="M16.0209 20.7334L15.9311 21.1592H15.0441L14.9687 21.5154H15.836L15.7502 21.9192H14.8791L14.7206 22.727H14.1228L14.5358 20.7334H16.0209ZM16.9265 21.9777L16.867 21.2516H16.8619L16.5291 21.9777H16.9265ZM17.5773 22.7271H16.9912L16.9647 22.4007H16.3338L16.1833 22.7271H15.5391L16.632 20.7334H17.2697L17.5773 22.7271ZM19.7157 21.2869L19.1561 21.3181C19.1437 21.1449 19.05 21.0583 18.8747 21.0583C18.8035 21.0583 18.7487 21.074 18.7105 21.1053C18.6722 21.1365 18.6531 21.1741 18.6531 21.2175C18.6531 21.2492 18.6685 21.2793 18.6993 21.3078C18.7302 21.3364 18.8031 21.3731 18.9184 21.4176C19.0644 21.4755 19.1833 21.5305 19.2747 21.5819C19.3663 21.6336 19.4412 21.7007 19.4992 21.7832C19.5574 21.8657 19.5863 21.9686 19.5863 22.0918C19.5863 22.2081 19.5549 22.3162 19.4921 22.4163C19.429 22.5164 19.3384 22.5989 19.22 22.6637C19.1016 22.7286 18.9333 22.761 18.7152 22.761C18.4079 22.761 18.1901 22.7002 18.0617 22.5787C17.9332 22.4573 17.8689 22.3015 17.8689 22.1109V22.0647L18.4313 22.0251C18.4313 22.1495 18.4579 22.2371 18.5112 22.2885C18.5645 22.3397 18.638 22.3652 18.7323 22.3652C18.8273 22.3652 18.8997 22.3439 18.9495 22.3015C18.9991 22.2588 19.024 22.2102 19.024 22.1559C19.024 22.1153 19.0082 22.0775 18.9764 22.043C18.9448 22.0085 18.8669 21.9681 18.7428 21.9219C18.4585 21.8167 18.2789 21.7197 18.2037 21.6309C18.1284 21.5423 18.0907 21.435 18.0907 21.3101C18.0907 21.1958 18.1218 21.0916 18.1839 20.9972C18.2458 20.903 18.3361 20.8297 18.4545 20.7776C18.5727 20.7257 18.7147 20.6995 18.8802 20.6995C19.4038 20.6995 19.6822 20.8953 19.7157 21.2869ZM21.8569 20.7334L21.7578 21.2229H21.1295L20.814 22.727H20.2134L20.5276 21.2229H19.927L20.0272 20.7334H21.8569ZM23.6931 20.7334L23.6045 21.1616H22.6224L22.5577 21.4788H23.5043L23.417 21.8825H22.4721L22.3902 22.2729H23.4553L23.3602 22.727H21.6985L22.1116 20.7334H23.6931ZM25.5727 21.2869L25.013 21.3181C25.0007 21.1449 24.907 21.0583 24.7318 21.0583C24.6605 21.0583 24.6058 21.074 24.5675 21.1053C24.5292 21.1365 24.5101 21.1741 24.5101 21.2175C24.5101 21.2492 24.5255 21.2793 24.5563 21.3078C24.5872 21.3364 24.66 21.3731 24.7754 21.4176C24.9214 21.4755 25.0403 21.5305 25.1318 21.5819C25.2235 21.6336 25.2981 21.7007 25.3563 21.7832C25.4144 21.8657 25.4433 21.9686 25.4433 22.0918C25.4433 22.2081 25.4119 22.3162 25.3491 22.4163C25.2862 22.5164 25.1954 22.5989 25.0771 22.6637C24.9587 22.7286 24.7904 22.761 24.5723 22.761C24.265 22.761 24.0473 22.7002 23.9187 22.5787C23.7902 22.4573 23.726 22.3015 23.726 22.1109V22.0647L24.2883 22.0251C24.2883 22.1495 24.3149 22.2371 24.3682 22.2885C24.4214 22.3397 24.4952 22.3652 24.5892 22.3652C24.6843 22.3652 24.7568 22.3439 24.8065 22.3015C24.8562 22.2588 24.8811 22.2102 24.8811 22.1559C24.8811 22.1153 24.8651 22.0775 24.8336 22.043C24.8018 22.0085 24.7239 21.9681 24.5999 21.9219C24.3156 21.8167 24.136 21.7197 24.0607 21.6309C23.9855 21.5423 23.9478 21.435 23.9478 21.3101C23.9478 21.1958 23.9788 21.0916 24.0409 20.9972C24.1029 20.903 24.193 20.8297 24.3115 20.7776C24.4298 20.7257 24.5717 20.6995 24.7372 20.6995C25.2607 20.6995 25.5392 20.8953 25.5727 21.2869ZM27.714 20.7334L27.6148 21.2229H26.9865L26.671 22.727H26.0705L26.3846 21.2229H25.784L25.8844 20.7334H27.714ZM31.3995 20.7334L30.4887 22.727H29.9026L29.8564 21.5046H29.8511L29.2992 22.727H28.7013L28.6498 20.7334H29.1884L29.1607 21.9505L29.1672 21.956L29.702 20.7334H30.2828L30.3104 21.9642H30.3157L30.8133 20.7334H31.3995ZM32.3948 21.9777L32.3353 21.2516H32.33L31.9975 21.9777H32.3948ZM33.0456 22.7271H32.4595L32.433 22.4007H31.8021L31.6516 22.7271H31.0074L32.1005 20.7334H32.7381L33.0456 22.7271ZM35.2461 20.7334L34.3142 21.9751L34.1598 22.727H33.5564L33.7161 21.9588L33.1354 20.7334H33.7623L34.0595 21.4704L34.5597 20.7334H35.2461ZM32.7384 0C27.8114 0.892593 18.0709 3.61835 11.0002 11.709V2.81526C11.0002 1.26054 12.1288 0 13.5211 0H32.7384Z" fill="#E82C2A"/>
<defs>
<filter id="filter0_d_24_4163" x="0" y="0" width="59" height="73" filterUnits="userSpaceOnUse" color-interpolation-filters="sRGB">
<feFlood flood-opacity="0" result="BackgroundImageFix"/>
<feColorMatrix in="SourceAlpha" type="matrix" values="0 0 0 0 0 0 0 0 0 0 0 0 0 0 0 0 0 0 127 0" result="hardAlpha"/>
<feOffset dy="9"/>
<feGaussianBlur stdDeviation="4.5"/>
<feComposite in2="hardAlpha" operator="out"/>
<feColorMatrix type="matrix" values="0 0 0 0 0 0 0 0 0 0 0 0 0 0 0 0 0 0 0.15 0"/>
<feBlend mode="normal" in2="BackgroundImageFix" result="effect1_dropShadow_24_4163"/>
<feBlend mode="normal" in="SourceGraphic" in2="effect1_dropShadow_24_4163" result="shape"/>
</filter>
</defs>
</svg>
