<svg width="48" height="48" viewBox="0 0 48 48" fill="none" xmlns="http://www.w3.org/2000/svg">
<rect width="48" height="48" rx="2.7027" fill="#242121"/>
<path fill-rule="evenodd" clip-rule="evenodd" d="M6.70764 24.7154L12.3127 15.5731H16.5563L14.2344 19.5026H18.3981L20.8803 15.4836H25.4708L19.5992 24.7154H15.3554L17.6419 20.7057H13.5137L10.9514 24.7154H6.70764ZM21.6009 24.7154L27.1259 15.5731L36.8134 15.6337C39.4013 16.0239 38.1445 17.8319 38.1445 17.8319C37.6507 19.3154 34.3321 20.3849 34.3321 20.3849L35.6133 26.3995L39.7772 23.9134H42.0992L35.8981 27.6847L37.1348 33.056L32.348 33.0556L31.6098 30.0084L26.2449 33.056H24.0032L31.2895 28.645L29.7909 20.901C29.6673 19.8318 32.4107 19.1818 32.4107 19.1818C34.3321 18.1304 33.5138 17.0611 33.5138 17.0611C33.2649 16.4907 30.809 16.8561 30.809 16.8561L25.8447 24.7154H21.6009Z" fill="white"/>
<path fill-rule="evenodd" clip-rule="evenodd" d="M8.36714 26.0785L8.26433 26.5526H7.24848L7.16221 26.9492H8.15546L8.05719 27.3987H7.05954L6.87803 28.2982H6.19336L6.66635 26.0785H8.36714ZM9.40427 27.4639L9.33619 26.6555H9.33026L8.9492 27.4639H9.40427ZM10.1496 28.2983H9.47841L9.4481 27.9349H8.72552L8.55311 28.2983H7.81538L9.06703 26.0785H9.79732L10.1496 28.2983ZM12.5986 26.6948L11.9577 26.7296C11.9435 26.5367 11.8362 26.4402 11.6355 26.4402C11.5539 26.4402 11.4912 26.4578 11.4474 26.4926C11.4036 26.5273 11.3816 26.5692 11.3816 26.6175C11.3816 26.6528 11.3993 26.6863 11.4346 26.7181C11.47 26.7498 11.5535 26.7907 11.6855 26.8403C11.8527 26.9047 11.9889 26.966 12.0936 27.0233C12.1985 27.0808 12.2842 27.1555 12.3506 27.2473C12.4173 27.3392 12.4504 27.4538 12.4504 27.591C12.4504 27.7205 12.4144 27.8409 12.3425 27.9522C12.2703 28.0638 12.1665 28.1556 12.0309 28.2278C11.8953 28.2999 11.7026 28.3361 11.4528 28.3361C11.1009 28.3361 10.8515 28.2683 10.7044 28.1331C10.5572 27.9979 10.4836 27.8244 10.4836 27.6123V27.5608L11.1276 27.5168C11.1276 27.6552 11.1581 27.7528 11.2192 27.8099C11.2802 27.8669 11.3644 27.8954 11.4723 27.8954C11.5812 27.8954 11.664 27.8716 11.7211 27.8244C11.7779 27.7769 11.8064 27.7228 11.8064 27.6624C11.8064 27.6171 11.7883 27.575 11.752 27.5366C11.7157 27.4983 11.6265 27.4533 11.4844 27.4018C11.1588 27.2847 10.9532 27.1766 10.867 27.0778C10.7808 26.9791 10.7376 26.8597 10.7376 26.7206C10.7376 26.5933 10.7732 26.4774 10.8443 26.3722C10.9153 26.2673 11.0186 26.1857 11.1542 26.1277C11.2896 26.0699 11.4522 26.0408 11.6417 26.0408C12.2413 26.0408 12.5602 26.2587 12.5986 26.6948ZM15.0507 26.0785L14.9373 26.6236H14.2178L13.8564 28.2982H13.1686L13.5284 26.6236H12.8406L12.9554 26.0785H15.0507ZM17.1536 26.0785L17.0522 26.5552H15.9275L15.8533 26.9085H16.9374L16.8375 27.3579H15.7553L15.6615 27.7926H16.8813L16.7724 28.2982H14.8693L15.3425 26.0785H17.1536ZM19.3062 26.6948L18.6652 26.7296C18.6512 26.5367 18.5438 26.4402 18.3432 26.4402C18.2616 26.4402 18.1989 26.4578 18.155 26.4926C18.1112 26.5273 18.0893 26.5692 18.0893 26.6175C18.0893 26.6528 18.1069 26.6863 18.1422 26.7181C18.1776 26.7498 18.261 26.7907 18.3932 26.8403C18.5604 26.9047 18.6965 26.966 18.8013 27.0233C18.9063 27.0808 18.9917 27.1555 19.0584 27.2473C19.125 27.3392 19.1581 27.4538 19.1581 27.591C19.1581 27.7205 19.1221 27.8409 19.0502 27.9522C18.9781 28.0638 18.8742 28.1556 18.7387 28.2278C18.6031 28.2999 18.4103 28.3361 18.1606 28.3361C17.8086 28.3361 17.5593 28.2683 17.4121 28.1331C17.2649 27.9979 17.1913 27.8244 17.1913 27.6123V27.5608L17.8353 27.5168C17.8353 27.6552 17.8658 27.7528 17.9268 27.8099C17.9877 27.8669 18.0722 27.8954 18.1798 27.8954C18.2889 27.8954 18.3718 27.8716 18.4287 27.8244C18.4857 27.7769 18.5142 27.7228 18.5142 27.6624C18.5142 27.6171 18.4959 27.575 18.4598 27.5366C18.4234 27.4983 18.3342 27.4533 18.1921 27.4018C17.8666 27.2847 17.6608 27.1766 17.5747 27.0778C17.4886 26.9791 17.4453 26.8597 17.4453 26.7206C17.4453 26.5933 17.4808 26.4774 17.552 26.3722C17.6229 26.2673 17.7262 26.1857 17.8619 26.1277C17.9974 26.0699 18.1599 26.0408 18.3494 26.0408C18.9489 26.0408 19.2679 26.2587 19.3062 26.6948ZM21.7585 26.0785L21.645 26.6236H20.9254L20.5641 28.2982H19.8764L20.2361 26.6236H19.5482L19.6632 26.0785H21.7585ZM25.9793 26.0785L24.9362 28.2982H24.265L24.2121 26.9372H24.206L23.574 28.2982H22.8892L22.8302 26.0785H23.4471L23.4154 27.4337L23.4228 27.4397L24.0353 26.0785H24.7004L24.7321 27.4489H24.7381L25.308 26.0785H25.9793ZM27.1191 27.4639L27.051 26.6555H27.045L26.6642 27.4639H27.1191ZM27.8644 28.2983H27.1933L27.1629 27.9349H26.4404L26.268 28.2983H25.5302L26.7822 26.0785H27.5123L27.8644 28.2983ZM30.3846 26.0785L29.3173 27.461L29.1405 28.2982H28.4495L28.6324 27.4429L27.9673 26.0785H28.6853L29.0256 26.8991L29.5985 26.0785H30.3846Z" fill="#E82C2A"/>
</svg>
